<svg xmlns="http://www.w3.org/2000/svg" version="1.1" xmlns:xlink="http://www.w3.org/1999/xlink" width="1000" height="1000"><g clip-path="url(#SvgjsClipPath1111)"><rect width="1000" height="1000" fill="#ffffff"></rect><g transform="matrix(1.744186046511628,0,0,1.744186046511628,50,51.74418604651163)"><svg xmlns="http://www.w3.org/2000/svg" version="1.1" xmlns:xlink="http://www.w3.org/1999/xlink" width="516" height="514"><svg width="516" height="514" viewBox="0 0 516 514" fill="none" xmlns="http://www.w3.org/2000/svg">
<path d="M139.452 275.735C140.827 271.295 140.34 266.579 137.964 262.589C135.596 258.6 131.533 255.665 126.803 254.463C122.072 253.26 117.101 253.899 113.116 256.272C109.123 258.643 106.442 262.555 105.531 267.112C104.805 270.708 104.093 274.248 103.395 277.733C90.6758 341.089 77.9474 404.481 65.2454 467.769C64.5456 471.262 63.8328 474.806 63.131 478.307C62.8061 479.931 63.1577 481.657 64.061 483.094C64.9669 484.531 66.3504 485.561 67.9546 485.968C69.5588 486.376 71.266 486.132 72.7483 485.302C74.2279 484.471 75.3613 483.122 75.8514 481.54C76.9066 478.129 77.9728 474.675 79.0259 471.272C98.0881 409.601 117.177 347.825 136.256 286.086C137.307 282.691 138.372 279.241 139.452 275.735Z" fill="black"></path>
<path d="M198.569 469.686C200.402 473.951 203.845 477.273 208.194 478.897C212.541 480.521 217.438 480.314 221.754 478.345C226.07 476.376 229.436 472.814 231.059 468.467C232.684 464.119 232.433 459.341 230.413 455.161C226.705 447.47 223.052 439.902 219.455 432.454C154.072 297.021 88.6526 161.509 23.3377 26.2252C19.7321 18.76 16.0755 11.1829 12.4619 3.69988C11.7209 2.16617 10.384 0.980914 8.76513 0.39586C7.14512 -0.188671 5.37574 -0.125122 3.8265 0.581551C2.27725 1.28822 1.06936 2.58273 0.448791 4.18928C-0.170635 5.79531 -0.151946 7.58184 0.520491 9.14682C3.80244 16.7811 7.12734 24.5096 10.4012 32.1261C69.7454 170.133 129.194 308.369 188.606 446.525C191.872 454.124 195.193 461.844 198.569 469.686Z" fill="black"></path>
<path d="M361.911 258.101C362.59 253.504 361.386 248.916 358.43 245.334C355.482 241.753 351.023 239.471 346.169 239.004C341.315 238.536 336.503 239.925 332.925 242.877C329.34 245.829 327.283 250.103 327.072 254.745C326.896 258.476 326.725 262.147 326.56 265.762C323.526 331.474 320.489 397.224 317.462 462.864C317.297 466.487 317.126 470.163 316.959 473.794C316.884 475.45 317.493 477.104 318.604 478.387C319.718 479.671 321.244 480.479 322.893 480.637C324.542 480.796 326.193 480.295 327.532 479.247C328.868 478.2 329.781 476.693 330.023 475.053C330.553 471.456 331.087 467.815 331.616 464.228C341.175 399.216 350.744 334.096 360.31 269.013C360.838 265.434 361.371 261.797 361.911 258.101Z" fill="black"></path>
<path d="M491.619 423.611C492.937 426.653 495.403 429.023 498.51 430.182C501.615 431.343 505.105 431.198 508.179 429.796C511.253 428.394 513.65 425.853 514.809 422.748C515.97 419.642 515.798 416.226 514.364 413.236C511.215 406.647 508.073 400.28 504.938 394.13C476.039 339.569 443.67 281.444 385.632 247.886C322.343 209.912 252.905 260.928 218.777 309.138C216.718 311.765 214.457 314.694 212.475 317.223C211.257 318.759 210.525 319.704 209.305 321.133C208.733 321.795 208.359 322.219 207.902 322.675C207.646 322.931 207.475 323.051 207.603 322.975C207.637 322.957 207.693 322.926 207.78 322.884C207.802 322.874 207.826 322.863 207.853 322.851C207.876 322.841 207.91 322.825 207.999 322.79C208.158 322.727 208.376 322.652 208.679 322.596C209.26 322.478 210.342 322.468 211.368 323.008C212.401 323.534 213.021 324.433 213.256 324.978C212.728 323.878 211.775 323.027 210.617 322.607C209.459 322.187 208.192 322.232 207.082 322.738C205.973 323.245 205.108 324.172 204.665 325.322C204.224 326.471 204.241 327.749 204.726 328.869C205.073 329.66 205.843 330.729 207.063 331.351C208.275 331.987 209.579 331.999 210.419 331.833C210.852 331.752 211.208 331.635 211.515 331.513C211.589 331.484 211.675 331.447 211.727 331.424C211.758 331.41 211.788 331.397 211.817 331.383C211.877 331.357 211.934 331.329 211.989 331.302C212.212 331.193 212.408 331.082 212.59 330.972C213.31 330.527 213.834 330.082 214.376 329.59C215.263 328.769 215.721 328.284 216.446 327.504C216.617 327.318 216.791 327.128 216.968 326.931C217.146 326.733 217.328 326.528 217.445 326.397C217.711 326.1 217.984 325.791 218.264 325.47C218.824 324.828 219.413 324.139 220.035 323.406C222.176 320.887 224.519 318.064 226.65 315.554C263.197 268.677 325.565 228.619 377.275 262.905C427.135 293.918 457.465 350.765 483.157 404.719C485.968 410.798 488.789 417.093 491.619 423.611Z" fill="black"></path>
<path d="M211.118 472.111C212.451 475.147 214.931 477.51 218.037 478.67C221.142 479.83 224.619 479.692 227.679 478.296C230.738 476.901 233.122 474.366 234.281 471.261C235.442 468.155 235.283 464.733 233.864 461.736C230.577 454.861 228.842 447.631 228.751 440.109C228.574 412.29 249.069 384.33 268.499 358.005C278.4 344.585 288.853 331.198 297.747 315.732C306.127 300.924 315.288 279.866 305.65 259.361C263.589 167.749 186.87 88.6607 90.1298 57.7476C85.5716 56.201 81.3716 54.8669 76.8219 53.4241C75.815 53.1062 74.6058 52.7204 73.5323 52.374C72.9938 52.2003 72.4793 52.0332 71.9895 51.8724C71.431 51.6878 70.8454 51.4907 70.3312 51.3139C69.8002 51.1309 69.366 50.9793 68.8595 50.7936C68.2984 50.5865 67.8081 50.3956 67.4007 50.2263C67.0531 50.0859 66.507 49.8322 66.3014 49.7171C66.1956 49.6619 66.118 49.6078 66.1746 49.656C66.237 49.7266 66.5788 49.9429 66.9703 50.7667C66.4456 49.6587 65.4945 48.8005 64.3352 48.3766C63.1754 47.9529 61.9026 47.9983 60.7874 48.507C59.6723 49.0156 58.8036 49.9471 58.3632 51.1006C57.9234 52.2539 57.948 53.5348 58.4407 54.6573C59.6662 57.0284 61.0416 57.4618 61.5706 57.8674C62.2707 58.2862 63.1243 58.6872 63.6054 58.9053C64.1773 59.1643 64.7865 59.4196 65.4408 59.6801C66.0294 59.9149 66.5097 60.1005 67.0862 60.3173C67.6437 60.5269 68.2633 60.7533 68.8449 60.963C69.3543 61.1478 69.8832 61.337 70.4319 61.5314C71.5261 61.9191 72.7381 62.3401 73.7381 62.6901C78.2559 64.2594 82.3238 65.6871 86.7376 67.3206C179.822 100.133 250.602 177.676 288.764 267.063C298.429 320.86 210.461 360.72 204.533 440.007C204.316 450.95 206.669 462.136 211.118 472.111Z" fill="black"></path>
<path d="M208.083 145.787C208.786 141.196 207.618 136.574 204.745 132.926C201.878 129.278 197.543 126.904 192.781 126.335C188.019 125.767 183.246 127.054 179.601 129.924C175.951 132.793 173.726 137.01 173.329 141.637C172.828 147.375 172.372 153.02 171.96 158.573C165.705 258.878 163.197 364.32 205.306 459.246C206.591 461.941 207.824 464.395 209.088 466.895C209.414 467.544 209.692 468.087 209.996 468.695C210.323 469.352 210.612 469.937 210.857 470.44C211.153 471.063 211.381 471.558 211.546 471.948C211.637 472.166 211.684 472.299 211.693 472.287C211.723 472.293 211.575 472.016 211.69 470.934C211.546 472.613 212.09 474.305 213.169 475.633C214.251 476.962 215.781 477.818 217.453 478.018C219.126 478.217 220.814 477.745 222.178 476.709C223.54 475.672 224.467 474.156 224.722 472.49C224.912 470.9 224.633 469.745 224.498 469.11C224.362 468.517 224.203 467.991 224.028 467.469C223.725 466.567 223.459 465.881 223.137 465.081C222.882 464.44 222.602 463.766 222.296 463.047C222.016 462.381 221.774 461.806 221.487 461.135C220.388 458.556 219.38 456.155 218.322 453.522C184.47 361.746 193.059 259.293 205.673 162.188C206.433 156.81 207.236 151.343 208.083 145.787Z" fill="black"></path>
</svg></svg></g></g><defs><clipPath id="SvgjsClipPath1111"><rect width="1000" height="1000" x="0" y="0" rx="200" ry="200"></rect></clipPath></defs></svg>